<svg id="Layer_1" data-name="Layer 1" xmlns="http://www.w3.org/2000/svg" width="735.43" height="735.43" viewBox="0 0 735.43 735.43">
  <g>
    <rect x="1" y="1" width="733.43" height="733.43" rx="120.71" style="fill: #840010;stroke: #1d1d1b;stroke-miterlimit: 10;stroke-width: 2px"/>
    <g>
      <path d="M1566,1616.71H950.19a66.9,66.9,0,0,1-66.9-66.9V934.05a50.76,50.76,0,0,1,50.76-50.76h615.76a66.9,66.9,0,0,1,66.9,66.9V1566A50.76,50.76,0,0,1,1566,1616.71Zm-604.57-27.33h413.31c118.57,0,214.69-96.12,214.69-214.69V961.38a50.77,50.77,0,0,0-50.76-50.76H1125.31c-118.57,0-214.69,96.12-214.69,214.69v413.31A50.77,50.77,0,0,0,961.38,1589.38Z" transform="translate(-882.29 -882.29)" style="fill: #fff"/>
      <g>
        <path d="M1044.43,1448.21h43.48V1221.76h-43.48v-7.9h43.48v-29.93a253.16,253.16,0,0,1,2-34.16,161.13,161.13,0,0,1,5.36-25.42,101.57,101.57,0,0,1,7.91-19.2,94.89,94.89,0,0,1,10.16-15,143,143,0,0,1,36.71-32.47,86.63,86.63,0,0,1,46.87-13.83q18.63,0,31.9,5.36t21.74,13.27a50.87,50.87,0,0,1,12.43,17.22q3.94,9.32,4,16.66a34.16,34.16,0,0,1-6.21,19.77q-6.23,9-20.9,9a49.4,49.4,0,0,1-16.65-3.39q-9.33-3.39-9.32-14.68a29.17,29.17,0,0,1,5.36-17.22,29.18,29.18,0,0,0,5.37-17.23q0-12.4-10.17-16.65a53.69,53.69,0,0,0-20.89-4.24q-23.16,0-40.1,20.33t-16.94,63.25v78.49h70v7.9h-70v226.45h51.39v7.9H1044.43Z" transform="translate(-882.29 -882.29)" style="fill: #fff"/>
        <path d="M1451.07,1435.78a48.34,48.34,0,0,1-13,6.78,41.34,41.34,0,0,1-13,2.25q-9.61,0-14.68-5.65t-5.08-22V1276.53a93,93,0,0,0-4.52-29.07,63.58,63.58,0,0,0-15.24-24.86q-10.75-11-28.24-17.51t-43.49-6.49q-21.46,0-38.11,5.08t-27.66,13.84a59.46,59.46,0,0,0-16.67,20,52.43,52.43,0,0,0-5.65,23.71c0,7.17,1.5,13,4.53,17.51s10.73,6.77,23.14,6.77q10.71,0,16.38-5.36a17.55,17.55,0,0,0,5.65-13.27,87.25,87.25,0,0,0-1.7-13.84,105.42,105.42,0,0,1-1.7-18.92q0-14.65,12.14-21.18t30.78-6.49q14.13,0,22.58,4a28.88,28.88,0,0,1,13,11.59,51.44,51.44,0,0,1,6.2,18.34,156.61,156.61,0,0,1,1.7,24.29q0,16.92-2.54,26.82a33.75,33.75,0,0,1-9.32,16.36q-6.78,6.51-18.92,11t-30.77,10.73q-15.83,5.1-31.35,9.6a137.07,137.07,0,0,0-28.22,11.57,58.51,58.51,0,0,0-20.62,18.92q-7.92,11.86-7.9,31.62a73.9,73.9,0,0,0,2.54,18.37,38.34,38.34,0,0,0,10.44,17.77q7.89,7.92,22,13.29t37.82,5.36c13.07,0,24-1.41,32.74-4.23-14.27-3-29.85-7.31-36.4-11.59-5.22-3.4-9.71-6.86-12.7-11.57a44.46,44.46,0,0,1-6.22-16.1,94.82,94.82,0,0,1-1.7-17.51q0-19.74,9.6-33t27.69-20.62l42.34-16.94q17.51-7.33,18.63-14.68h1.13v56.47c0,5.39.29,26.45.46,38a57.15,57.15,0,0,0,3.32,18.91,54.7,54.7,0,0,0,13.44,21.28q12.13,11.58,39.26,11.59,14.67,0,24.83-4.23a77.68,77.68,0,0,0,17.51-9.89Z" transform="translate(-882.29 -882.29)" style="fill: #fff"/>
      </g>
    </g>
  </g>
</svg>
